<svg xmlns="http://www.w3.org/2000/svg" width="16.796" height="16.857" viewBox="0 0 16.796 16.857">
  <g id="syringe" transform="translate(0.33 0.455)">
    <path id="Path_2057" data-name="Path 2057" d="M6.635,9.649a.533.533,0,1,0,.753.753l.377-.377,1.883,1.883L8.142,13.416a.533.533,0,0,0,.753.753l.753-.753,6.4,6.4a2.664,2.664,0,0,0,2.857.6l.533.533a1.065,1.065,0,0,0,1.03.276L21.7,22.458a.533.533,0,0,0,.753-.753l-1.231-1.231a1.065,1.065,0,0,0-.276-1.029l-.533-.533a2.665,2.665,0,0,0-.6-2.857l-6.4-6.4L14.17,8.9a.533.533,0,0,0-.753-.753L11.909,9.649,10.026,7.765l.376-.376a.533.533,0,0,0-.753-.753Zm4.623.651L9.375,8.417l-.958.958L10.3,11.258Zm1.507,0L10.3,12.765l2.029,2.029,2.465-2.465Zm.317,5.247,1.13,1.13.753.753.753.753.753.753.232.232a1.743,1.743,0,0,0,1.87.39l.985-.985a1.743,1.743,0,0,0-.39-1.87l-3.622-3.622Zm7.23,4.563L20.3,20.1l-.379-.379q-.048.054-.1.1t-.105.1l.379.379.015.013a.536.536,0,0,1,.2-.2Z" transform="translate(-6.479 -6.479)" fill="#ffb36a" fill-rule="evenodd"/>
    <path id="Path_2058" data-name="Path 2058" d="M8.276,9.493l-.314.318-.364.368a.069.069,0,0,1-.1,0,.071.071,0,0,1,0-.1l2.906-2.943-.314-.318.314.318a.069.069,0,0,1,.1,0,.071.071,0,0,1,0,.1l-.363.368-.314.318-.314.318-.924.936Zm2.13,2.793.314-.318.314-.318.924-.936.314-.318.314-.318,1.453-1.472a.069.069,0,0,1,.1,0,.071.071,0,0,1,0,.1l-.727.736-.314.318-.314.318-2.377,2.407-.314.318-.314.318-.726.736a.069.069,0,0,1-.1,0,.071.071,0,0,1,0-.1Zm3.458,4.339L12.7,15.449l.061-.061-.4-.312a2.159,2.159,0,0,1-.175-.151,2.137,2.137,0,0,0,.3.239l.3.2.256-.259,2.328-2.357.256-.259-.2-.306a2.156,2.156,0,0,0-.234-.3,2.169,2.169,0,0,1,.147.174l.308.408.061-.061,3.878,3.927a2.172,2.172,0,0,1,.476,2.308l-.106.274.205.208.514.521a.6.6,0,0,1,.151.571l-.066.25.181.183,1.187,1.2a.071.071,0,0,1,0,.1.069.069,0,0,1-.1,0l-1.187-1.2-.181-.183-.247.067a.578.578,0,0,1-.564-.153l-.514-.521-.205-.208-.271.107a2.105,2.105,0,0,1-2.186-.393l1.137-1.151a.979.979,0,0,0,0-1.372l-.314.318.314-.318a.949.949,0,0,0-1.354,0L15.317,18.1l-.1-.1,1.139-1.154a.979.979,0,0,0,0-1.372.949.949,0,0,0-1.354,0Z" transform="translate(-6.747 -6.57)" fill="#ffb36a" stroke="#ffb36a" stroke-width="2"/>
  </g>
</svg>
