<svg id="intravenous_bag" xmlns="http://www.w3.org/2000/svg" width="13.909" height="20" viewBox="0 0 13.909 20">
  <path id="Path_2062" data-name="Path 2062" d="M22.993,9.987A.993.993,0,1,0,22,8.993.993.993,0,0,0,22.993,9.987Z" transform="translate(-16.03 -5.907)" fill="#76b8ff"/>
  <path id="Path_2063" data-name="Path 2063" d="M21.9,20.806h-.492V21.8H19.421v1.987h-.993V21.8H16.444a.994.994,0,0,1-.993.97h-.993a.993.993,0,0,1-.993-.97h-.994v-.993h-.5a1.987,1.987,0,0,1-1.987-1.987V6.953a1.987,1.987,0,0,1,1.987-1.987h2.98l.562-.578a1.987,1.987,0,0,1,2.849,0l.562.578H21.9a1.987,1.987,0,0,1,1.987,1.987V18.819A1.987,1.987,0,0,1,21.9,20.806ZM18.212,5.659a.994.994,0,0,0,.712.3H21.9a.993.993,0,0,1,.993.994v.665H20.915v.993H22.9V10.1H20.915V11.1H22.9v1.49H20.915v.993H22.9v2.285a2.911,2.911,0,0,0-3.97-.462c-1.976,1.28-3.784,1.2-5.866,1.118-.663-.028-1.354-.056-2.087-.043V6.953a.994.994,0,0,1,.993-.994h2.98a.993.993,0,0,0,.712-.3l.562-.578a.994.994,0,0,1,1.425,0Z" transform="translate(-9.982 -3.786)" fill="#76b8ff" fill-rule="evenodd"/>
</svg>
