<svg xmlns="http://www.w3.org/2000/svg" width="16.105" height="16.105" viewBox="0 0 16.105 16.105">
  <path id="stockdown" d="M14.106,16.1H2.028A1.941,1.941,0,0,1,.6,15.515a1.936,1.936,0,0,1-.589-1.424V2.013A1.941,1.941,0,0,1,.6.59,1.937,1.937,0,0,1,2.028,0H14.107A1.941,1.941,0,0,1,15.53.59a1.937,1.937,0,0,1,.59,1.424V14.092a2.013,2.013,0,0,1-2.013,2.013Zm0-12.079a1.941,1.941,0,0,0-.59-1.424,1.937,1.937,0,0,0-1.424-.59H4.041a1.941,1.941,0,0,0-1.424.59,1.937,1.937,0,0,0-.59,1.424v8.052a1.941,1.941,0,0,0,.59,1.424,1.937,1.937,0,0,0,1.424.59h8.052a2.013,2.013,0,0,0,2.013-2.013V4.026ZM12.36,11.072H9.435q-.252,0-.307-.15a1.508,1.508,0,0,1-.055-.48v-.094l.959-.959L7.548,6.9,6.7,7.77a.969.969,0,0,1-1.368,0A1.013,1.013,0,0,0,5.22,7.6L3.3,5.678a.969.969,0,0,1,0-1.368.969.969,0,0,1,1.368,0L6.053,5.694l.865-.881a.969.969,0,0,1,1.368,0,.868.868,0,0,1,.157.252l2.972,2.957.943-.943h.11a2.553,2.553,0,0,1,.33.016.405.405,0,0,1,.2.094.31.31,0,0,1,.094.252v2.91a.7.7,0,0,1-.212.511.716.716,0,0,1-.527.212Z" transform="translate(-0.015 0)" fill="#ff897c"/>
</svg>
